/* XPM */
static char *_257e6eecdfa45e7980ec25831d5ab83cNyYBqGzVwBsO2MQ[] = {
/* columns rows colors chars-per-pixel */
"64 64 233 2 ",
"   c #010301",
".  c #020A02",
"X  c #090A06",
"o  c #0C0D09",
"O  c #03070A",
"+  c #0B1205",
"@  c #12130D",
"#  c #13170C",
"$  c #0E1412",
"%  c #141313",
"&  c #1B1C1C",
"*  c #181917",
"=  c #221A16",
"-  c #1B2119",
";  c #152D0B",
":  c #23231E",
">  c #1E1C22",
",  c #1B1D24",
"<  c #201F26",
"1  c #1E2125",
"2  c #232323",
"3  c #25252A",
"4  c #2B2B2B",
"5  c #2A2825",
"6  c #293225",
"7  c #33362B",
"8  c #2C2B32",
"9  c #322F33",
"0  c #2F3133",
"q  c #343334",
"w  c #3A3838",
"e  c #384C2F",
"r  c #2B461B",
"t  c #40463E",
"y  c #425837",
"u  c #4D6F39",
"i  c #413C42",
"p  c #484747",
"a  c #4F5648",
"s  c #575854",
"d  c #534F4C",
"f  c #576E4A",
"g  c #5F6062",
"h  c #686664",
"j  c #777577",
"k  c #6C716C",
"l  c #617252",
"z  c #5D9D33",
"x  c #5F9D38",
"c  c #5A9332",
"v  c #619D35",
"b  c #5DA12C",
"n  c #5EA334",
"m  c #5DA33A",
"M  c #61A52E",
"N  c #62A434",
"B  c #65A935",
"V  c #64A43B",
"C  c #6AA63C",
"Z  c #65A93C",
"A  c #6AAB3D",
"S  c #6AAA37",
"D  c #72AD3E",
"F  c #6EB13C",
"G  c #73B13F",
"H  c #5D8048",
"J  c #6C954D",
"K  c #698458",
"L  c #759A59",
"P  c #648D4E",
"I  c #64A441",
"U  c #6CA643",
"Y  c #65AB41",
"T  c #6DAC44",
"R  c #6EAC4A",
"E  c #6EA749",
"W  c #72AD45",
"Q  c #73A44C",
"!  c #74AD4B",
"~  c #79AD4D",
"^  c #74A644",
"/  c #6DB145",
"(  c #6FB249",
")  c #73B145",
"_  c #74B24B",
"`  c #7AB44D",
"'  c #75B94E",
"]  c #7CB94D",
"[  c #7AB646",
"{  c #75A456",
"}  c #76AD52",
"|  c #7AAC53",
" . c #7BA55D",
".. c #7CAB5C",
"X. c #78A458",
"o. c #76B252",
"O. c #7CB453",
"+. c #7DBA54",
"@. c #7DB55A",
"#. c #7EB95A",
"$. c #77B852",
"%. c #7E986F",
"&. c #7DA963",
"*. c #7EB461",
"=. c #7FC158",
"-. c #82BB4D",
";. c #85B64E",
":. c #81AC5D",
">. c #80AC57",
",. c #82B654",
"<. c #82BA55",
"1. c #81B65B",
"2. c #83BB5B",
"3. c #8ABD5C",
"4. c #8AB859",
"5. c #83AC63",
"6. c #86AA68",
"7. c #83B462",
"8. c #85BB61",
"9. c #89BD63",
"0. c #8AB46B",
"q. c #8ABD6A",
"w. c #84B56A",
"e. c #93BB6B",
"r. c #88A675",
"t. c #95B778",
"y. c #8DB176",
"u. c #879C71",
"i. c #85C154",
"p. c #8BC356",
"a. c #85C25B",
"s. c #8BC35C",
"d. c #8DCA5D",
"f. c #88C958",
"g. c #91C65D",
"h. c #92CB5D",
"j. c #94C659",
"k. c #94D15D",
"l. c #84C04F",
"z. c #85C162",
"x. c #8CC362",
"c. c #8ECA61",
"v. c #8DC36A",
"b. c #92C663",
"n. c #93CB63",
"m. c #94CC69",
"M. c #98C969",
"N. c #95D066",
"B. c #9DC372",
"V. c #8DD163",
"C. c #7F7A80",
"Z. c #807E8B",
"A. c #7C8184",
"S. c #969896",
"D. c #8E938C",
"F. c #8EA283",
"G. c #9AB687",
"H. c #98AA8F",
"J. c #A5B696",
"K. c #A09EA1",
"L. c #AAA8A6",
"P. c #ADBCA7",
"I. c #B8B8B9",
"U. c #B2A9AE",
"Y. c #9CC284",
"T. c #A9C798",
"R. c #ADCC96",
"E. c #B7C9AB",
"W. c #B9D7A8",
"Q. c #BDCAB6",
"!. c #BDD3B7",
"~. c #ACC4A0",
"^. c #C0C2BC",
"/. c #C5D3BD",
"(. c #C5DBBC",
"). c #C5D7AD",
"_. c #CAE6BA",
"`. c #D1ECB7",
"'. c #BCBDC1",
"]. c #CCCBCA",
"[. c #C7C7C5",
"{. c #D2CDCC",
"}. c #CBDCC3",
"|. c #CAD6C8",
" X c #D3D3CD",
".X c #D2DACD",
"XX c #D9D7CE",
"oX c #CFDAD4",
"OX c #CED4D7",
"+X c #D3D4D3",
"@X c #D9D6D4",
"#X c #D5DAD4",
"$X c #DADAD5",
"%X c #D6D5DB",
"&X c #DBD6DB",
"*X c #D5D9DA",
"=X c #DBDBDB",
"-X c #D1CBD3",
";X c #E1DED7",
":X c #D4E4CB",
">X c #DEE1DC",
",X c #D7E3D6",
"<X c #CDE4C4",
"1X c #E2E3DE",
"2X c #E2EADB",
"3X c #E5FAD8",
"4X c #E4FFCF",
"5X c #DDDCE2",
"6X c #DBD9E4",
"7X c #E2DEE3",
"8X c #DEE1E1",
"9X c #E4E5E3",
"0X c #E9E5E5",
"qX c #E5EAE4",
"wX c #EAEBE6",
"eX c #E4E5EA",
"rX c #EBECEC",
"tX c #E7EAEB",
"yX c #F1EEED",
"uX c #EAF6E6",
"iX c #F3F2ED",
"pX c #F5FDEE",
"aX c #EDEDF2",
"sX c #EEEEF8",
"dX c #EEF0F6",
"fX c #F3F4F3",
"gX c #F5FAF4",
"hX c #FAFCF5",
"jX c #F5F5FA",
"kX c #F9F7FC",
"lX c #FDFEFD",
"zX c #F8F7F8",
"xX c #F2EEF5",
/* pixels */
"' +.` ! O.~ ~ ,.] -.-.k.n.h.k.j.V.=.b B M ] g.n.M.3.3.3.,.` E ! ] #.$.' n m m ' +.+.$.( $.( ( ( ( ! ' O.] ! W _ ) ) W ) o.+.O.O.",
"O.#.O.o.! Q ! <.<.O.-.p.h.p.h.h.d.f.b N M i.N.g.p.g.b.x.O.^ W ` <.+.+.( z Z m +.+.+.$.R R R T ( R ` ,.O.+.' W ! ! ) W ! ` O.O.O.",
"o.@.O.o.Q E } O.<.] p.d.N.h.h.g.d.f.N v z <.N.g.n.n.3.3.2.! W W O.O.#._ z V n +.2.#.o.W T T / ( ! ! <.W ' _ W W T ! W W ` +.O.1.",
"+.O.@.@.1.1.@.,.,._ a.h.h.n.3.p.a.-.V D C -.p.s.s.n.3.x.,.T ! ! 2.O.8.+.U ( U O.O.,.~ ! ( ( / ) W ~ d.<.s.O.) T ! ' ' _ O.O.O.O.",
"@.o.@.7.8.z.8.@.O.` +.c.d.n.-.] ] ' W [ W +.,.O.,.b.x.n.,.T _ ! @.7.@.2.@.@.O.O.O.@.o.! _ W T W _ [ n.x.m.O.W _ ! ] O.O.O.O.' O.",
"@.o.@.#.7.8.2.@.O.O.a.N.n.n.,.` ! ` W ! C ;.<.] 2.n.m.M.i.W ! W @.7.@.@.#.O.+.O.@.,.O.! ! W W W ` ~ c.n.n.' T _ W ' +.+.<.O.O.,.",
"#.@.*.*.7.8.8.@.O.] <.d.c.p.3.;.,.] ~ ~ W ,.,.,.+.g.N.d.O.W ! O.2.8.2.@.@.@.#.O.O.O.o.~ ! ` _ _ W ] x.N.m.,.W W ! ] O.O.O.@.O.O.",
"@.o.o.*.#.8.8.} ` ! _ W ] ) s.p.n.2.2.x.4.O.! ` ` ! ` ` ' 2.#.2.1.1.8.@.) _ R ) ! ` | ~ O.O.O.+.,.+.,.+.] O.` +.` ,.O.` ` ! ! ~ ",
"+.#.} 1.2.2.9.~ W T ] T W W p.g.n.M.x.x.8.O.! W W ! W W O.a.8.2.8.O.3.O.T ) ) R ! E o.#.o.o.#.#.<.` +.` ] ` O.+.` O.,.+.O.! ! ! ",
"+.+.O.2.8.2.2.! ` T [ A D G j.n.b.b.9.3.9.@.Q E ! ` W W O.#.8.8.3.2.<.+.) [ _ _ T _ @.2.#.@.+.+.<.` <.] O.` ` ! O.O.O.O._ ! } ! ",
"( ) ! ' 2.,.O.` W T W [ [ -.p.n.b.b.x.x.v.2.! o.W ` ` _ @.2.7.8.1.2.+.) T Z A R T ( ! _ $.o.$.+.] ] <.,.,.<.2.3.2.O.O.,.o.` ! ! ",
"m m V U _ ~ W ! ) ) -.N.h.n.h.n.n.x.3.3.x.O.E } ` O.2.O.#.@.....! ! _ U V V Z ' a.#.O.R ! R E ! C ` n.N.M.n.m.m.b.O.O.,.} ! } ! ",
"V V V C _ ` ! _ ) W ` h.s.n.g.n.M.n.s.9.z.@.E ! ` O.2.O.:.:.5.7.{ } } U m m m ' ) O.o.W ~ _ _ ) ) ] m.s.b.p.x.b.b.,.o.O.~ ! ! ! ",
"N Z V Y R ! ! U ) W ] n.h.n.b.b.g.d.s.9.8.@.o.} W ` ,.1.1.1.5.w. .| } R I m I ( $.+.O.T ! U ! W ^ [ d.h.M.N.m.M.x.1.O.,.O.~ ! ! ",
"/ ' ) +.2.a.2.! V C ) s.s.s.4.4.<.` ' O.o.@.o.o.] <.<.2.8.0.y.w.w.*.7.*.{ R R +.+.O.@.E ~ W p.f.p.i.] ~ ~ <.2.s.x.2.,.2.,.O.o.O.",
"' =.' #.a.z.8.U I v W <.,.,.,.] <.W ! ( U o.@.@.7.5...5.y.T.R.W.W.R.R.Y.w.X.{ ..@.} O.! ! W x.c.n.p.W W U s.3.x.3.9.2.2.2.O.O.@.",
"O.+.#.O.v.v.z.I V v E s.2.a.o.1.#.$.Y ( Z =.@.&.L r.J.E.^./..XH.k y w y f u.F.r.:.:.1.Q _ R a.c.V.f.R } Q 2.d.2.x.3.2.2.O.O.O.@.",
"! @.O.1.z.#.8.( U T R 2.' 2.o.o.R $./ ( / _ { r.E.|. X X@X;X+XS.* 1 * * & # 6 a H.G.L { } $.$.p.f.=.R } E ,.3.s.2.7.2.2.,.O.@.@.",
"O.#.O.O.1.o.@.#.O.O.O.+.! 2.} ~ $.) V U I P G.(.|.#X#X@X$X@X>X^.q 2 = 2 : : = * : r.W.6.{ ! [ D Z C _ o.~ ! ^ C o.@.#.#.~ W Q } ",
",.O.~ o.1.o.o.+.O.O.] O.` ,.! W ) C ! { P f !.oX+X#X+X$X@XXX1X2Xh a 7 5 5 2 > > : p }._.&.Q >.D [ ) o.R W ~ ~ o.o.7.8.2.` ! ! } ",
"~ ,.O.,.2.O.o.,.O.] O.;.` ,.~ ~ [ D Q P e Q.oXOX%X=X@X@X$X;X9X;XyX;X;X[.j q 4 8 8 A.,XuX4X5.>.D W C ! ! ~ ` ^ ~ } @.1.@.~ ! ! ~ ",
"4.s.s.2.O.O.O.3.x.p.<.,.<.1.~ ~ C >.J r S.oX6XOX%X+X{.@X$X1X7X0X1XiXiXhXxXU.s w Z.eXlXuX4X`.0.e.s.i.,.O.O.,.o.O.@.7.2.2.,.+.1.o.",
"N.N.n.s.! ` ,.n.m.n.b.2.3.2.~ ~ >.L G.Q.+X&XOX6X$XXX#X=X&X5X7XxXyXkXzXiXlXlXyX7XkXlXlXgXpXuX).G.B.n.O.<.O.+.o.1.@.@.O.O.O.#.@.@.",
"n.g.n.c.` O.O.c.x.n.d.<.3.2.} { L 6.<X|.].6X%X].[.{.#X=X%XaXrXaXxXkXkXkXlXlXlXkXfXkXlXlXpXpXuXR.e.m.` <.-.+.O.@.@.*.2.O.<.,.2.#.",
"s.n.s.d.! ` ' s.x.s.s.2.2.1.} ..L W.|.#X{.U.h d d s S.1X8XaXsXdXjXxXlXlXlXlXlXlXwXhXhXhXlXhXlX,X6.B.,.,.<.+.$.*.7.@.4.O.,.` 3.@.",
"` ] ! ' V T C ` ] ' +.O.O.2.O.w.u.}.#X|.w 5 = = 5 5 s ;X8XeXtXdXjXlXlXkXlXlXlXlXhXiXlXlXlXlXlXuXG.>.,.` ` #.o.#.@.! | [ _ W ! R ",
"+.+.' o.U U U ' <.' O.' o.@.o.&.T.:X.XD.@ @ = : 5 4 w +X8XtXrXrXfXfXlXlXlXkXlXlXhXiXlXlXzXlXlXhX).w.1.;.] +.+.#.@.U ! ^ W ! R _ ",
"' +.o._ I I U ' O.' #.O.o.@.@.5.Q..X[.w % * & 2 4 w w I.8XrXuXiXgXgXlXlXlXlXlXlXlXhXfXlXlXlXlXlXT.6.>.] <.] #.7.@.! W D ) _ ( ! ",
"@.O.O.O._ o.O.#.' ~ O.O.} @.1.y.}.oXS.# X * & 3 8 9 w S.0X0XwXgXiXlXlXgXlXlXlXlXsXaXlXlXlXlXlXhXF.P :.` [ _ O.o.] s.-.-.] ) ' U ",
"@.$.o.#.#.#.O.O.2.O.} ~ Q } 1.Y.|.+Xs   o * 1 3 8 w w j 0XyXrXxXfXgXlXlXlXkXlXdX'.S.OXjXlXlXhXhXD.e :.;.A ` ( R W N.h.k.<.^ ' _ ",
"@.O.@.@.8.2.#.o.O.O.| ! ~ | 1.R.XX5Xw X $ $ , 1 < q q s XX0XxXxXlXlXlXlXhXlX$XS.s 8 i I.yXlXhXhXP.y L ! C _ ( ! W h.h.k.<.U R ( ",
"o.@.O.@.@.@.#.+.] ,.] ~ | Q 5.R..X-X9 X + $ 1 1 8 9 9 h @X;XxXxXjXkXlXlXlX$Xp p 8 w 8 3 j lXhXhXuXl >.~ ' T R ! ,.g.j.h.+._ U _ ",
"! E ! @.O.' ` h.j.h.<.^ } ..*.W..X].p   @ % % < 4 8 s [.0X9XtXeXrXyXlXlX%Xh i w 7 q 3 2 , K.iXiXgXW. .| W ) R R } 2.3.,.,.@.@.+.",
"! ! ! o.O.O.] f.k.k.l.W } { *.T.|.XX^.w X o = < 3 g ,X#X1X0XeXjXfXaXrX8Xk p w w 4 4 4 > > q iXhXpX_. .~ W W o.o._ 3.9.2.8.1.o.$.",
"! ! ~ } o.,.+.s.j.k.i.) } } &.H Q.=X X^.s 5 % < h [.OX9X$X8XaXtXrXfXkX$Xs e 0 w q 6 & = * s fXhX3XW.>.~ ' W R R } 2.3.3.2.@.@.@.",
"O.O.1.O.o.` ` s.d.k.p.W ! @.*.u P.#X@X;X{.L.w j ].%X*X#X*X0X1XrXaXfXkX>Xs q 0 0 3 > 5 * o L.lXhX3XT.X.^ _ ) +.@.+.O.,.1.1.@.#.#.",
"s.3.9.2.} W W d.V.f.p.` O.o.7.X./.$X#X X@X X].].%X%X5X+X8X>X9X0XdX8XrXgXg 8 8 3 3 < @ # # >XkXuX3Xy.X.! ! O.a.a.2.,.| ,.1.2.2.2.",
"b.p.x.,.~ E ! b.n.d.d.-.3.o.{ X.E.#X#X=X&X-X;X+X+X+X+X*X+X>X1X,XtXtXrXdXS.8 8 , < 2 @ + e iXzXgX<X6.| ~ ) +.+.2.2.,.| @.1.9.8.2.",
"3.s.s.@.! } o.3.m.n.s.) ' O._ L T./.#X{.-X%X7X+X$X$X+X*X%X+X>X9X8XuXaX5X].8 , 1 = o + + K.zXkXqXR.7.} ! W ] a.a.2.` O.4.1.1.8.2.",
"b.n.b.4.1.2.O.O.! _ _ ) R ) o.} r.}.#X*X6X6X-X$X+X X+X+X*X*X$X$X8X>X8XjX6Xi , , % % @ p 2XwXyX2Xr.7.@.2.<.<.c.d.x.,.@.4.} ~ o.! ",
"b.n.M.x.2.@.3.! _ _ ! T W / T } J ).|.oX%X6X6X+X@X X X>X+X*X5X*X,X>XeXeX0XZ.i w 9 i Z.{.wXwX2X_.L ..1.o.#.s.n.n.n.o.| 8.} ! ! ! ",
"n.n.n.3.1.o.1.! U ! _ W _ _ _ } L y._.oXOXOX%X%X X$X$X{.OX&X%X%X=X$X>X=X0X@X{.].@X;XxX&X;X2X:XG.:.1.8.,.<.s.n.c.x.,.@.1.~ ! ~ ! ",
"2.s.3.<.,.#.2.O.} O.` W W ! / _ X.L R.}.oXoX*X+XQ.+X#X X>X+X6X%X6X%X=X;XXX;X1X;XeX6X7XsX;X;XR.e.,.,.@.@.#.2.p.x.3.@.O.@.O.' O.` ",
"^ ) W _ +.,.,.3.a.x.2._ ! ) ` +.O.0.L R.<X|.#XS.: s I.%X+X*X%X%X+X%X$X=X;X;X;X1X5X8XeXoXJ.f e.B.M.n.x.8.2.<.;.,.2.1.@.@.2.2.<.,.",
"T R W ` <.<.<.x.z.x.#.! W ! ] #.#.o.L &.W.(.P.e     2 D.I.].&X5X%X%X%X XXXXXXX#X=X*X.X(.u L 4.k.h.p.7.7.8.4.,.,.o.@.o.o.4.a.,.<.",
"_ } ) ' +.] O.d.3.3.,._ ! ! ` _ +.) ! | L T.l           o 5 p k +X&X#X$X@X#X$X X#X|.<XK J >.4.k.h.c.v.z.8.4.,.] 2.8.7.*.#.<.<.a.",
"R T T / V C C p.x.m.3.@.O.] ` _ / ' d.3.e.5.u.7   O           X L.$X+X#X+X+X%XOX.X(.G.0.e.<.-.G [ _ @.*.1.:.<.<.@.1.*.o.) U U T ",
"( ( T R N v C s.n.n.s.,.O.O._ ! T $.n.h.M.| J K ; .         . . s oX#X.X X#X|.|.E.y.6.B.h.h.-.S D _ ..@.1.,.;.,.2.2.z.8._ V n V ",
"R $.o.A N N v d.n.N.s.! 1.@.~ ! W ` d.d.n.) C v c u e ; + . . - k |.|./.(.!.J.&.L  .2.c.n.d.[ W ) ` ] @.1.,.,.` ,.3.#.=.( m m V ",
"( ( T V S A S l.a.d.a.1.2.,.~ @.` ,.n.d.k.G S Z Q @.7.} H u K H.P.).T.G.y.r.w.0.1.4.<.n.d.d.' / W _ ] ~ ,.4.9.3.2.] +.' / Y I Y ",
"R ! ( ( ) ) W ) ^ ) O.x.x.3.O.O.| ,.n.n.n._ G A ' c.c.v.e.5.5.0.e.e.e.e...*.| O.@.o.;.h.d.n.] ) T _ O.,.,.x.M.x.x.U T A / / / / ",
"R $.! ) ) W ) W ` ^ ! a.3.x.,.,.;.;.b.M.N.] ) F ^ N.m.n.<.~ >.,.j.j.M.3.W 2.,.,.O.;.<.N.d.d.) C W _ <.2.2.v.M.M.x.C C Z / Y ( / ",
"! o.! W T ^ ' W W ! O.b.x.x.<.W ;.-.h.h.h.` T ! ] c.a.c.c.' +.l.j.h.h.h.+.O._ O.` ` -.h.h.k.[ [ ) ) #.+.@.x.m.v.V./ Z Z / m =.Z ",
"o.' ` ` ,.' ,.! ~ } o.O.! O.p.g.p.p.j.j.s.+.W ) / +.] ] ) B Z S 3.h.<.,.R R ' s.s.s.l.-.] [ A S A T f.#.2.2.3.8.#./ Y / / n Y n ",
"O.O.,.,.s.3.2.! Q ! o.! W ! p.m.n.b.9.x.x.O.! _ ) ' / Z n n B B @.v.8.@.R R ' a.d.d.l.S F / m Z n Z c.a.x.2.o.o.' ( Z Z Z n B B ",
",.O.<.` 2.,.#.O.{ ! } ! _ _ <.n.M.v.9.x.9.O.E ! o.U ' ' A n B n *.*.q.*.R R T f.k.k.f.S ' ' m m V Z c.#.c.@.o.@.$.T =./ Z n b n ",
"O.` ,.O.x.z.#.o.o.! ! ! ! ) <.d.v.x.z.8.2.$.T / T ' _ T R Y Z U *.v.1.@._ A / f.f.f.=.F F / Y m m Y =.3.3.2.O.@.o.( ) ( Z Z N V ",
"O.,.' ,.m.x.m.v.z.z.2.o.U W ) ` W R ) ) ) U N N V T ( _ #.z.z.x.1.3.` ,.2.=.] B b M M S / / Y m V V _ ! ! ! @.O.+.) ) / / / / / ",
"o.2.o.a.m.x.m.8.3.x.=.! W _ ) ) W G G G ) S M B S T U R #.v.q.0.2.;.,.,.] +.+.N V n B Z m m m m V V ! ! ! @.,.,.+.U ) / R ) ) ! ",
"O.O.O.a.m.m.n.a.2.v.*.( ! ) W D ) ) F D F M b M N G ( ! @.v.q.e.4.;.,.<.#.+.2.V z b V A / Z Y Z x V ! ! ! ' ,.[ ' W _ W ) ! R ! ",
"O.O.O.) _ ] ` 2.+.z.@.! _ _ T W ! _ ' ' ' A N B N [ ] ` O.3.9.9.4.4.7.1.2.$.@.@.#.] ] / / A / Y R _ #.@.,.2.s.3.<.W ) ! O.@.#.@.",
"#.' +.T v v z ` +.o.) R _ ) ! _ ! ~ @.O.' T m m B ] i.] ;.,.,.;.0.9.9.@.@.} +.c.N.k.i.C / / +.+.$.2.v.s.3.b.M.N.h.! W W 3.x.v.q.",
"' $.+.( V V N +.+.+._ ! ! W T W ! | O.#.+.T m m Y $.#.+.,.4.4.4.9.4.8.2.3.<.' i.f.k.p.D ` W _ o.@.o.x.3.s.j.b.j.h.! ^ C 8.x.v.q.",
"#.#.( ( V N V ) ' ' O.) R _ _ ! ~ | o.@.$.R I I Y #.#.O.1.4.1.,.0.7.8.8.) ' [ d.j.k.p.S ` W o.#.#.O.z.2.e.j.M.k.4.) ` ! 2.8.t.q."
};
