/* XPM */
static char *d324a47b2b4b446e8a095fb02337a4efmjLVZuL4MCx5r0W2[] = {
/* columns rows colors chars-per-pixel */
"64 64 256 2 ",
"   c #0C0100",
".  c #0F0F00",
"X  c #160400",
"o  c #191700",
"O  c #230100",
"+  c #2A0500",
"@  c #3B0200",
"#  c #350800",
"$  c #291600",
"%  c #381701",
"&  c #292306",
"*  c #372705",
"=  c #333603",
"-  c #393313",
";  c #1A2600",
":  c #430B00",
">  c #460602",
",  c #540C05",
"<  c #471902",
"1  c #571800",
"2  c #621C01",
"3  c #472603",
"4  c #532200",
"5  c #582903",
"6  c #563907",
"7  c #5A3913",
"8  c #493313",
"9  c #682602",
"0  c #752B04",
"q  c #673908",
"w  c #7D3C00",
"e  c #773602",
"r  c #6B3B1A",
"t  c #713216",
"y  c #4A3A26",
"u  c #5D3627",
"i  c #673E25",
"p  c #325409",
"a  c #594617",
"s  c #4B5014",
"d  c #784702",
"f  c #65461A",
"g  c #764818",
"h  c #7A571A",
"j  c #6B510C",
"k  c #53681B",
"l  c #7C6C0E",
"z  c #575229",
"x  c #684725",
"c  c #785728",
"v  c #765A33",
"b  c #735229",
"n  c #746F31",
"m  c #547424",
"M  c #7E6D42",
"N  c #843A02",
"B  c #903D00",
"V  c #844302",
"C  c #874705",
"Z  c #944801",
"A  c #875506",
"S  c #945401",
"D  c #995906",
"F  c #895818",
"G  c #8D5215",
"H  c #A45C0F",
"J  c #996A05",
"K  c #976619",
"L  c #8A6D12",
"P  c #A36401",
"I  c #A86906",
"U  c #AE7601",
"Y  c #B97703",
"T  c #A76819",
"R  c #A8771B",
"E  c #B67919",
"W  c #B06B0B",
"Q  c #835A28",
"!  c #8F5B2F",
"~  c #886629",
"^  c #996928",
"/  c #977825",
"(  c #8B6737",
")  c #956A3B",
"_  c #937637",
"`  c #B87B25",
"'  c #A67635",
"]  c #A76E2F",
"[  c #C97F04",
"{  c #997A45",
"}  c #8D6A46",
"|  c #A4724C",
" . c #845A42",
".. c #5E9D35",
"X. c #5E972F",
"o. c #649D35",
"O. c #708C35",
"+. c #5AA52C",
"@. c #5DA535",
"#. c #62A435",
"$. c #64A43A",
"%. c #6BA43D",
"&. c #64AA3B",
"*. c #6CAC3D",
"=. c #64A835",
"-. c #72AC3D",
";. c #79A53C",
":. c #6CB03A",
">. c #759042",
",. c #6BA642",
"<. c #6DAC43",
"1. c #6EAC4A",
"2. c #67A944",
"3. c #72AD45",
"4. c #7BAB45",
"5. c #74AD4B",
"6. c #79AD4C",
"7. c #78A646",
"8. c #6CB144",
"9. c #6EB24A",
"0. c #6BB547",
"q. c #73B245",
"w. c #7AB246",
"e. c #74B24B",
"r. c #7AB34D",
"t. c #7CB94D",
"y. c #73B94A",
"u. c #76AD51",
"i. c #7AAD52",
"p. c #7AAA57",
"a. c #76B252",
"s. c #7CB453",
"d. c #76B952",
"f. c #7DB954",
"g. c #7DB559",
"h. c #7DB95A",
"j. c #76B659",
"k. c #6DB151",
"l. c #7CB661",
"z. c #7FC552",
"x. c #9C8F1D",
"c. c #A9830C",
"v. c #B0880F",
"b. c #8C983A",
"n. c #969536",
"m. c #91892E",
"M. c #B88627",
"N. c #BA8536",
"B. c #A3963A",
"V. c #AC8E2B",
"C. c #8BA938",
"Z. c #97A539",
"A. c #8AB03F",
"S. c #ACAE39",
"D. c #C58808",
"F. c #C99805",
"G. c #C48915",
"H. c #D3980E",
"J. c #D4AA15",
"K. c #C99636",
"L. c #CB902E",
"P. c #D4AC31",
"I. c #E7BB34",
"U. c #E2B42D",
"Y. c #E4A91F",
"T. c #DAC131",
"R. c #889C44",
"E. c #949351",
"W. c #AD9051",
"Q. c #84AB4A",
"!. c #86A747",
"~. c #95A946",
"^. c #83B24E",
"/. c #84BA4D",
"(. c #88AC55",
"). c #96AC58",
"_. c #82B555",
"`. c #82BA55",
"'. c #82B65B",
"]. c #83BB5B",
"[. c #8ABD5C",
"{. c #8AB657",
"}. c #96B757",
"|. c #93B648",
" X c #A8AD49",
".X c #B1AF52",
"XX c #AA9465",
"oX c #85BC62",
"OX c #8ABD63",
"+X c #88B666",
"@X c #96BA64",
"#X c #96B36C",
"$X c #A4BA68",
"%X c #B2B16D",
"&X c #9B9863",
"*X c #C69545",
"=X c #C9A84A",
"-X c #D7B847",
";X c #DBB759",
":X c #CFA84F",
">X c #E5BA48",
",X c #E5B559",
"<X c #E6AF4F",
"1X c #CAB071",
"2X c #F0BE64",
"3X c #E4B064",
"4X c #85C155",
"5X c #8BC456",
"6X c #85C15D",
"7X c #8BC35B",
"8X c #8ECA5B",
"9X c #8EC956",
"0X c #93C65D",
"qX c #93CB5D",
"wX c #99C85B",
"eX c #88CB51",
"rX c #A3C458",
"tX c #B3C751",
"yX c #8CC463",
"uX c #8EC962",
"iX c #87C266",
"pX c #92C563",
"aX c #92CB63",
"sX c #9ACB63",
"dX c #94CC69",
"fX c #97C668",
"gX c #94D166",
"hX c #92C476",
"jX c #B5C777",
"kX c #AFC56C",
"lX c #CCC855",
"zX c #EBCD54",
"xX c #D9C967",
"cX c #D0CF76",
"vX c #F3D667",
"bX c #E8C87B",
"nX c #F8D676",
"mX c #EECF6F",
"MX c #EDE668",
"NX c #C8BB83",
"BX c #B5C98C",
"VX c #BED9A2",
"CX c #D2D28D",
"ZX c #FCDC87",
"AX c #ECD48F",
"SX c #FCE287",
"DX c #FEE799",
"FX c #EDEA98",
"GX c #CFDCAD",
"HX c #F7EFAF",
"JX c #E2DEAF",
"KX c #FDF8C7",
"LX c #FDFCD8",
"PX c #EDFBD8",
"IX c #FCFFE6",
"UX c #DEF3C8",
/* pixels */
"r.f.r.5.p.6.6.s.s./.`.qXqX8XqXwXsX/.+.+.+.z.0XwXpXyXoXOX(.p.p.u.p.j.f.e.o.=.#.t.h.h.j.k.1.k.9.e.3.5.s.s.d.y.3.e.3.e.3.e.a.f.s.s.",
"d.h.f.a.u.u.5.'.`.t./.5XqX9XqXqXsXeX@.+.+.z.sXwXpXyXOXhX{.6.p.5.h.j.s.e.o.%.o.t.f.h.d.k.1.1.e.3.5.r.f.s.f.e.3.3.3.e.3.3.e.f.s.s.",
"e.g.s.u.7.,.6.s.`.t.5X8XsXqXwXqXuXz.+.+.+.4XsXfXuXiXiXiXg.1.:.y.f.h.z.e.X.#.#.t.d.f.d.3.3.3.5.3.5.5.f.3.e.e.e.3.1.e.e.q.r.s.s._.",
"g.g.g.g.'.g.g.'.s.r.4XaXaXqX[.6XiXz.@.&.:.z.yX[.yXuXuXiXd.q.:.-.d.h.h.j.<.3.3.t.t.r.t.q.3.e.5.4.3.r.8X`.8Xr.1.<.3.e.e.e.s.s.s.f.",
"j.g.g.+XoXoXoXs.f.r.f.uX8XgX/.t.f.s.8.y.9.s.]._._.sX9X9X^.w.;.A._.+Xp.l.g.l.g.g.d.y.e.8.8.<.q.1.5.r.aXuXdXr.3.e.e.d.s.t.s.s.r.s.",
"j.a.g.l.l.oXoXs.f.d.4XdXaXaX`.6.5.r.3.5.1.g.{.^.|.}.rXrX}.}.rXkX$XjX#X#X#X+Xl.u.s.r.y.q.8.0.1.9.5.r.uXaXaXr.3.e.3.r.f.s.`.s.s.f.",
"h.j.'.oX'.oXoXg.i.s.`.8X8X5X[./.`._.i.u.5.a./.|.S.S.S.lXlXcXCXCXGXGXGXGXVXBX#X+Xs.y.q.q.9.9.9.a.3.s.yXdXdX`.5.3.3.t.s.s.s.f.a._.",
"f.u.g.g.'.+XoXu.r.3.e.3.t.w.7X6XaX[.].OX@X!.Z.n.x.x.L.zXzXnXSXAXKXLXPXIXPXUXVX#X(.r.w.w.y.d.j.j.f.`.`.t.d.t.e._.r._.`.a.i.5.5.5.",
"d.f.5.].oX].yX5.3.<.t.*.q.-.7X8XqXqX7X@X$XZ.x.c.E G.H.U.I.zXnXDXHXLXLXIXIXIXPXJXVX[.Q.^.`.r.'.h.[.r._.e._.r.s.`.r.f._.s.a.5.5.5.",
"`.j.g.].oX].].5.r.3.w.*.-.q.0XqXeXqX0X}. XV.c.Y U [ [ H.Y.I.zXMXDXHXHXKXLXLXLXLXJXBX$X(.^.^.`.`.s.t.t.t.t.t.6.6.s.s.s.f.r.6.5.5.",
"e.e.e.s.]._.i.r.3.*.q.t.w.t.5X8X9XwX|. XV.v.v.U P P Y U H.J.Y.I.zXvXSXDXFXHXHXHXFXcXlX}.Q.Q.r.r.t./.`.`.s.`.`.6X].s.s.f.a.5.u.5.",
"@.@.$.,.5.5.3.5.e.q.t.aXqXaX0XsX9XwX XB.v.v.Y U P I I P Y F.J.J.U.T.zXzXvXvXvXvXxXxXcXtX~.A.3.e.%.e.aXdXdXsXaXdXpXf.i._.s.5.u.5.",
"$.$.$.2.5.r.3.r.3.<.t.qX8XaX0XsXsXrXS.v.v.G.D.U P W I J I v.D.H.J.J.Y.J.U.I.U.Y.J.T.zXlXtX:.3.e.e.t.aX7XaX[.yXfXfXs.a.f.6.5.5.7.",
"#.$.$.%.1.e.3.<.e.q.r.aX0XaXpXsXwX Xx.v.D.G.[ P P D Z C V D I Y D.D.F.v.F.F.H.F.F.J.zXMXtXC.-.q.3.w.8XqXgXdXdXdXyX_.f._.s.5.u.5.",
"0.y.0.d.].].].5.$.%.3.7X6X[.{.{.}.Z.c.v.D.D.Y Z B B N 9 9 e B Z S D D S S P Y G.P.P.vXMXtXC.eX4X9X`.t.6.6.`.].[.yX]._.]._.s.a.f.",
"y.f.d.4X6XiX].,.$.$.3.`.`.`._.^.!.b.c.D.D.Y P B B B N 9 2 9 9 9 9 9 9 9 9 0 S E P.,XnXZXlXb.rXwXaX8X3.3.%.6X[.yXOX[.].].].a.i.f.",
"f.f.f.g.yXyXiX$.,...,.yX].[.r._.~.l J Y D.Y P Z Z Z Z B B N 4 1 : : > > , , A R <XbXZXNXW.n kXsXqX9Xe.q.3.].[.yXyX].].g.'.g.f.s.",
"u.s.g.'.iX].].5.7.,.5.'.s.h.r.^.Z.O.J Y [ Y P W ` ` ` W Z N 1 : < : @ > , : d R *XZXDXW.q 7 .X}.[./.3.3.<._.].iX].].].oXg.s.s.s.",
"g.s.s.s.].6.f.g.s.s.a.'.e.].e.4.C.x.A U D.D.Y =X3X3X3X` H N 9 , t < @ @ , 1 d R 3XDXAXQ < 6 ~.;.-.3.3.q.5.5.5.5.u.g.'.].u.5.7.5.",
"g.f.5.a.f.a.i.f.s.s.f.f.e.'.5.7.C.m.L U L.U.J.zX2XZX2XK.H B e t g 4 @ @ , 0 H ' *XAX1Xq < h ).7.^.e.3.3.1.5.u.u.i.g.oX].i.5.5.u.",
"e.s.s.f.`.f.r.s.d.f.s.f.s._.5.6.!.R.l J G.>XI.vXmX2X,XL.T Z N 0 r i < @ , 0 H ` W.W.Q 1 r XX).(.%.3.3.e.r.5.7.2.u.s.g.g.i.5.6.5.",
"6XyX7X6Xa.s.s.6X7XiX].f.h.].5.i.!.~.l j S G.U.zX,X:XK.T Z N N 0 r ! 7 @ , N B T ^ g : : } NX@X_.8X`.d.r.i.f.f.h.j.].].'.g.g.g.f.",
"dXaXaX7X5.r.`.aXdXdXuX].[.h.5.5.6.!.b.L A S U G.M.M.` Z w e 0 B ^ } r : , t N V 4 : : 9 | CXsXsXpXyXf.[.f._.a.i.s.g.f.s.g.f.f.s.",
"aXuXaXyXr.t.s.yXuXuXyX`.6X[.a.3.5.7.~.n.R C A d S D T N e e B T ` ' Q 5 > 1 0 1 : + , b E.jXrX5XdXyXs.].a.].f.'.f.'.'.f.'.'.].'.",
"uXaXyX7X5.e.r.7XpXyX6X[.].f.a.e.y.e.7. XK.K.A d w e e 0 e K N.*XN.! g q + > 9 t 0 > , ) ).}.sX5XaXyXs.'.g._.f.f.g.s.`.f.'.a.].f.",
"e.f.e.r.%.,.,.a.f.f.s.r.s.s.s.s.y.d.e.~..X;XK.T S w e 1 V N.<XK.T Z r 4 X @ 1 | ) 1 g W.).Q.s.].].oXi.f.f.f.s.`.f.3.a.6.5.5.6.5.",
"s.`.s.s.,.5.<.s.f.s.s.f.g.'.f.f.j.j.i.!. X=X,X*X*X` ` N C K *X] N ! G < O 3 t ] ' t W.%X(.6.g.OX'.].i.g.s._.s.`.`.<.3.3.5.5.<.5.",
"r.f.r.e.o.,.,.r.s.s.f.f.s.s.s.f.h.s.6.Q.Z.V.*X:X` E T G w N N V N | ! % O % ~ ! w g =X X;.5.g.+XoXoXi.'.f.f.`.`.s.3.3.3.3.r.5.5.",
"g.f.s.a.6.a.a._.a.s.s.i.r.a.s.s.'.'.i.Q.R.n./ M.L.E I S V w 9 9 V G Q g 7 3 j g ! { %X}.4.5.].oXoXoX5.s.r.r.6.r.r.5X`.`.s.3.t.3.",
"f.a.i.f.f.[._.s._.s.a.5.5.6.`.`._._.u.7.R.R.L R W E M.I D N e 9 d F F Q c ~ h { 1XCXjXQ.4.5.].yXiXoX5.6.5.6.3.3.q.gXaXgX`.3.r.3.",
"'.f.g.g.].].h.a.f.s.i.5.3.3.r.s.`.t.1.u.!.b.m./ K K M.L.L.E A d e ^ ) ~ g W.' XXAXJX@X5.3.6.].iXoXoXu.5.5.3.3.3.3.8X8XaXt.3.3.3.",
"a.s.s.s.g.g.h.f.f.f.s.e.5.5.s.`./.t.1.g.i.Q.m.K G w T mX,X,XB./ d ' *XB.q Q ) :XNXCX'.5.6.3.f.iXiX].5.5.5.3.6.q.f.aXuXpX`.5.<.e.",
"3.<.e.s.f.s.s.yXdXpX6X%.e.3.s.`.g.h.g.].j.(.b.l T H V ' AXDXbX.X/ =XcX| 4 9 d K m.~.l.hXl.iX<.#.=.%.q.<.e.3.6.u.u.].OXg.'.f.a.'.",
"e.<.3.r.s.f._.7XaXqX7X3.r.4.`._.h.].'.].h.p.R./ H H H K *XbXSXbX:XxX1X} % 4 C L m.7.p.l.iXyX-.+.#.=.8.<.e.1.u.a.a.oXiXoX].g.a.f.",
"3.3.5.5.i.s._.8XaXaX5X%.3.3.s.g.f.].^./.f.e.(.E.^ T R J V.;XZXSXnXZX1Xx # < h m.~.6.j.iXhXyX7.o...=.q.w.e.5.5.1.u.].oXoX].g.s.g.",
"g.j.f.s.s.e.r.8XqXqX7X4.r.r.s.g.a.r.4.^.y.e.).).W.' V.M.V.K.zXnXZXDX| < < q L m.C.5.k.l._._.4.3.q.3.8.8.3.5.a.g.g.'.g.g.g.'.'.'.",
"yXOXOX].r.,.4.9X9XqXeXt.f.g.a.1.6.6.4.4.e.a.+X@X$XW.V.V.M.P.zXnXZXAX} 3 5 j x.n.;.,.,.e.3.4.r.].f.t.q.1.5.`.[.6X].'.'.f.'.].].].",
"iXOXyX{.5.,.3.9XqXqX4Xt.t.g.u.5.5.4.u.6.1.j.j.(.}.%X.XV.K.>XzXmXAXXXx + # j m.Z.7.1.<.5.3.5.s.h.j.r.5.5.e.`.'.`.].s.i.'.].oXoXoX",
"OXOXOXf.6.5.t.4XqXqX4Xy.s.d.a.g.5.5.p.p.k.u.d.r._.kXAX:X=XP.-XzX3Xb # + % h B.C.%.%.%.3.4.e.d.h.].f.5.5.3._.`.4X`.r.i._.g.].].].",
"pXaXfX`.f.{.r.r.3.y.e.q.y.1.2.e.a.7.j.l.a.5.e.e.6.sXFXnX,X<X-X,X_ * X $ 5 / n.C.-.8.4.3.q.q.a.j.a.f.s.'.s.[.pXpXyX{.s.f.i.u.i.u.",
"0XaXsXyX_.s.OX5.5.u.1.<.8.1.2.1.e.e.j.j.f.q.*.-.-.rXMXmX>XzX-X.X6 X O 3 c h ~.A.*.8.e.-.-.3.d.j.g.s.]._.s.pXfXaXpXr.6.].6.5.p.7.",
"wXqXqX6X'.s.g.5.1.5.e.1.y.q.e.y.8.a.9.j.t.q.8.y.-.|.tXT.P.-X=Xh X X 3 b v j ~.4.:.:.e.3.q.w.d.g.u.s.'.f._.yXdXfXpXs.s.'.5.5.u.u.",
"5X5X4X`.].'.oXg.j.s.a.3.3.3.8.q.1.y.y.z.r.e.*.%.-.C.S.lX-XW.K # X % r h a j !.4.:.&.1.3.-.4.s.].].].'._.].[.pXOX[.s.s.s.a.e.g.e.",
"-.-.3.w.g.l.l.oXiXiXh.e.1.q.t.d.j.f.0.2.2.5.2.1.-.C.S.I.:XK 3 X # i Q c 6 _ (.7.0.0.q.-.3.4.7XdXfXdX].].[.].'._.].f._.f.].[.h.].",
"*.q.3.e.].].h.iXyXiXh.5.3.e.s.f.a.d.&.z.1.k.2.,.;.C.S.=X' 5 + < u  .( ^ c %X).6.2.&.y.:.w.w.5XaXyXaXf.s.].s._.s.p.s.6.a.].z.h.f.",
"q.q.e.s.g.j.g.iX6X6Xf.5.5.5.e.s.j.k.0.:.8.<.2.1.%.~..X] a % < i b i t Q W.cX$Xp.j.0.8.:.-.3.5XaXaXpX{.].[.oXoX].].].g.f.].].].4X",
"q.2.<.1.2.,.2.6XuXaX6X_.s.s.i.u.i.s.eXz.eX*.@.2.7. Xn.j 4 q r 7 % + < Q %XCX%X+Xs.s.t.8X8X8Xt.w.^.e.`.s.s._.s.g.].g.h.g.5.2.2.<.",
"e.3.3.1...$.$.7XaXaX6Xs.s.s.u.6.p.s.gXeXeX*.@.o.Q.R.L F ^ g 4 # + + < { 1XcXCXjX{.'.e.qX0XdXq.*.3.3.`._.i.'.'.'.oX].iX].e.$...$.",
"1.e.a.2.#.#.o.qXgXgX7X5._.s.u.6.6.a.0X9XqX-.@.,.!.b./ ^ G 9 4 : @ # g | W.1XCXBX}.(.`.aX8XaXt.:.3.r.r.s.'._.'.s._.[.].6X9.@.$.$.",
"9.e.<.&.&.*.=.`.4X7X6X`.].'.i.s.3.t.qX0XqXw.o.X.n b.E.^ ! C q < : 1 } XXE.CXCX%X(.!.{.sX8XqXt.8.3.y.s.r._.{.[.[.[.r.d.y.8.&.2.2.",
"5.e.8.8.q.q.-.q.3.5.s.yXpX].a.s._.`.aX9X9X/.6.>.s s c Q ) ( 6 < 4 r  .} v E.&X%X&X).).pX7X8X0.:.<.e._._.'.OXdXiX6X2.q.&.2.0.2.0.",
"1.e.e.e.q.3.q.<.r.3.5.].oXyX_.{._.`.qX8XqX5X}.E.s $ X # 3 8 # $ % 3 % $ $ % x &XCXjX}.sX0XgXy.*.8.q.f.[.'.pXdXfXyX%.*.$.2.2.k.0.",
"5.a.3.3.3.,.r.3.3.5.s.dXyXyX_.5.s._.pXaXpX(.%X%X%Xv * 8 & .           X * f &XCXCXCXfX0XpXdXy.8.8.q.4Xf.g.iXdXfXyX<.2.*.0.&.y.0.",
"a.s.r.r.s.s.f.5.5.u.u.s.5.t.6X0X@XpXyXyXoX>.E.%X| ( b M 8 - y & z - & 8 v n E.1XJXCX).6.6.`.<.&.&.<.6Xh.`.].oX].h.8.&.*.:.@.0.@.",
"s.^.`.`.8X[.[.5.5.1.6.5.3.e.6XsXsXyXoXh.p.p s n } } { { b v c 7 v x 8 r ( c ( W..X1XR.O.;.3.@.#.@.$.uX6XyX].s.s.s.8.<.8.&.@.@.@.",
"s.s.f.a.]._.g.g.u.5.a.5.5.5.4XqXqX0XiXoXp.p ; & a x n v z v Q x b x 7 7 f a f k ~ E.O.O.4.q.$.=.&.&.uX].uXg.s.j.d.9.y.8.&.=.+.@.",
"s.s._.f.yXyXh.a.p.5.u.5.3.e.`.9X8X5X[.`.(.m =     X $ & 8 y y y z y - & o . o = s O.).!.4.-.=.@.@.&.6X].].'.f.g.a.3.9.8.&.&.@.#.",
"6.f.r.f.yXyXdXyXoXoXh.a.3.<.q.w.4.3.3.6.(.7.m s & $ o           . . . . o ; p s O.(.(.!.-.:.@.&.$.$.e.1.5.u.s.s.f.q.e.8.<.q.8.e.",
"s.].r.].dXdXdXiXoXdXh.5.3.3.q.3.5.5.5.3.s.,.o.X.m m p - = * - s s z z z s k m O.;.4.%.9.&.*.@.&.$.$.5.6.5.f.`.f.d.<.3.8.e.3.3.9.",
"a.s.d.6XdXdXuX6X].yXh.5.3.y.3.3.q.5.6.5.5.,.$.$.$.,.>.O.O.n n >.E.(.(.E.b.!.C.;.o.#.@.&.&.&.@.@...$.5.5.5.s._.r.t.3.e.3.3.1.5.5.",
"f.a.s.e.e.s.r.6Xj.6Xs.5.a.5.<.-.-.-.t.a.p.1.$.=...3._._.(.+XOX@X}.}.{._._.f.].f.`.t.w.:.:.<.8.8.1.e.].s._.].[.6X`.3.5.3.g.j.].'.",
"f.d.j.<...#.X.r.r.s.e.1.e.e.8.w.-.q.f.f.g.1.$.+.2.j.[._.'.g._.s.{.{.[.'.f.g.f.6XgXgX9X:.q.8.y.d.h.h.uXyX0XpXsXsXqX4.3.3.].yXhXOX",
"d.d.f.q.$.$.#.f.f.f.a.5.5.3.3.1.3.e.j.s.h.<.=.=.#.r.f.'.+X(.+X[.oX'.[.{.`.^.t.0X0XqX6X3.e.3.a.`.a.s.yX].7X[.0X0XaX3.3.,.].yXiX+X",
"j.h.y.0.$.#.$.q.t.y.d.5.3.e.e.8.3.y.j.d.d.&.=.+.=.t.'.oX+X'.{._.+X+X[.{.^.^.^.5X0XqX[.3.5.6.6.s.].g.OX].OXpXfXsX5X3.e.3.oXoXhX#X"
};
