/* XPM */
static char *_94406e1b4234dc8c6e4b03454ae3596quBURyp8W8QCglLV[] = {
/* columns rows colors chars-per-pixel */
"64 64 75 1 ",
"  c #57A62E",
". c #5AA52E",
"X c #5BA92E",
"o c #5CA632",
"O c #5CA932",
"+ c #5FA93A",
"@ c #61A635",
"# c #62AA35",
"$ c #63A63A",
"% c #68A73C",
"& c #65AB3C",
"* c #69AC3E",
"= c #72AE3C",
"- c #6EB33D",
"; c #71B43E",
": c #66AC41",
"> c #6DAD44",
", c #6DAE49",
"< c #71AE46",
"1 c #73AE4A",
"2 c #79AF4F",
"3 c #6DB146",
"4 c #6EB149",
"5 c #72B145",
"6 c #79B347",
"7 c #75B844",
"8 c #74B14B",
"9 c #7AB44D",
"0 c #7CB94C",
"q c #75AD51",
"w c #79AF51",
"e c #76B351",
"r c #7CB554",
"t c #77B852",
"y c #7DB954",
"u c #7EB559",
"i c #7EB859",
"p c #81BB4E",
"a c #81B656",
"s c #82BB55",
"d c #88BF57",
"f c #81B65B",
"g c #83BA5B",
"h c #89BC5D",
"j c #86B661",
"k c #89B663",
"l c #86BA61",
"z c #8ABB64",
"x c #8DBD6B",
"c c #91BD6C",
"v c #8FBE70",
"b c #91BD73",
"n c #85C254",
"m c #8AC456",
"M c #8EC855",
"N c #87C35A",
"B c #8BC35B",
"V c #8ECA5B",
"C c #91C756",
"Z c #92CB56",
"A c #91C65D",
"S c #93CB5C",
"D c #98CC5F",
"F c #96D057",
"G c #92D15C",
"H c #84C060",
"J c #8DC362",
"K c #8DC861",
"L c #8EC16B",
"P c #92C562",
"I c #94CB61",
"U c #99CD61",
"Y c #91C36A",
"T c #96D060",
"R c #8FC071",
/* pixels */
"rru8558rgffSZSSSUnXOX0SSPxhxf<1>rfu9 X@eift4,44141urr1<88,<18rru",
"riue<<8fffhSSZSSZn OXnICPYxRr<<9ifu8 O#yfgr,>44151uufe585<1<ryrr",
"rrr21<1rsrdVSSSSSmOo.nSSSxxxu1,1fif4 Oo9gir,>345<1urr1<5,<<<8rru",
"rrrrrrarfrdSSSNdmy&*$0BBNPPY0><1ufjr&3>tuu85344<<9NgN91<1699rrur",
"urrillhurudSMSrrrr,5>rfugSSSp<81ufgrryrurue,5841<0SSZ01<8ryruurr",
"urugjllruryGZSfrre111rfufSZZp<1<ffufrufuuue1<,<116SZS6111ruuurru",
"urugjkhrrufVSVdrsr111rsffVSSs119ffffrrrrrre8111819VSIr1<2rrarerr",
"rreikkg91,w966NmAhhxlr118699rlyghfku11,81898rrrrrrssau9rrrrre118",
"urrgkjh9<11,1<nSZPxxx9<<1<11rklkfzzf184><<1urrfsgfururfrrrfr61<<",
"iirfzlg18,<<1<mSZPLxxr<8,<12rhlklkjr<559><9fuafffrrerrrerrur91<8",
"8459ffa1<<6pa0mISPxxzr<4118erfffafa8**>812e88eerr0sdyssghrer8,84",
"ooO&111,11pCSCSSZPzxPr<59fsfsyur161:OO$8grr191<1<9SSSSSIJarfe85<",
"OOO&41891<0SZZSSZIzbcw>51fffurrr8,<*XX#err81945110SCMMMSAreue<<<",
"@oo&111:4>0PSSSASPHRxr1<1ufauuuu9<1:oo$8ufr,<><1<6VSGZSSVaruw<18",
"988rllg,#@9dhhgsyrereerwesffglllgfkr**,9rre15<nNNn094gzPxhggrrer",
"riulxxN$X.,hkffrre,:>8iuasffhxxxxxYh111rrrw1<<VAIm>>,hxclkjlgrru",
"urrfxxH%  :Nzzuuue444eurffsazxxLccLr<11uiye8<1mSSm55,fYcLzjffrru",
"urrizzl,::8ffjr9r833>8rtrfafglllkllu8984984451Nmmn4,>rllgllhfrer",
"uutuurirttrgwf1<8,&:&,111ugue,,,urrrrr8&oO&3,,<<<<18551>1uui9>,<",
"ururrrirurruur1<<<&&&,1,1fil8>43yrruuut$XO#444<5911,<<<98fgge,85",
"rreerrerrrrrrf8515:&:*551srf8-43rreauer@oo$>>1><>>1161<,8ffre11<",
"NBBhrurhBBdfff1<<5,:>%&&3VBPr344fiagPmm934eifysnnsrrrrereffffear",
"ZDUBqryASSPhzle1<8855$o #VDSs><8uifdSSIyruuhhhPSDAafaururfffauff",
"SCZNurrSZAVfjh9>51<<9$XO#GZSp511fjidSZSirufjkgPSZSaffurrfrgafaag",
"CCPN8tezSBJhgie211185:*#=mmV0<<<ru8yVPNsruuffyBPPJsisrruarfrrrfr",
"rrr8$::9r0rruuueur<55sZGm0<1159,+$@*5168rre188aggfrrraffr1111111",
"uur8&::9rrurrurrrr8<1dUZB<8<<,5>oOo*<1wruu9,>:yhhfuuufsfg,<<,918",
"ruu8&&:8fuuuurrrir111dUZV>9<1<55O  &411rry8334gzjhrrrfffr9><<<,1",
"ruur88eirree92rsrr1<<0spy999affr&&&34,,rrr933,fzxh1e9e99rNsn0<11",
"rrruyiiuur89<1rsfr65,1<*1sfhzxxx889<,44ruue431lxxl11,1<<1IZDs<6<",
"ruruggfrru8,<1rffr<<<8592fafjxcx8<5>44,9tr8,>,lLxh<<18156SSSs<1<",
"rrurfaaruur8<1aafy1111<19rfflzxk4<43444eiue844glxg15111,6SMCp11<",
"<112uueCSSs>11afafufue1<8ghhe481OoX6SSV11<exxz>OO$5511118hhkfrru",
"11<9yrrmSSm<91ragffffe<11gjkr<1<##X7ZSS61<wxxx> O#4<1<151fzhfuru",
">5<6rruPSSN<,1asfffyr6<<ehhhr11,  .7TUI611iYcL* o#581<<<efzhfrrr",
"rfrreq0MZSN8wer9ee99ree8wrrre988**&5sps<>:8faf1><<4,199rfgffffff",
"xxxg11<mZDBrru8<19<<1rrue1112ear<,4,1<<*&&3>12rasr5<5azziuirfhll",
"Yxxa<>,VDSBryy81511>>euur1<1wfru915561<&#$3311agfr111ajklurrfkkk",
"zxxa595mSSdeer18<,191eirr558erur<<5<115&&&,:1<afrr111rhhlrrrfhgh",
"CPIdarrr589<18,5819re84<1<3,9rur<4:yJVm5>,48<<efrfrfaNASPurue119",
"ZCSmhji,<<,>444<89irr8,4,1<>8irr34>yGZV8444><<rrruguaVSZC9uie<<<",
"SSSNfuu9<14,431<,1rri8,3419,eure4>>tSSS8>445110rruifgBISVrriq<<1",
"Nmdgfuurwr8,449e19e9943:>,11euufrttgBBNt:4,811yspsfffhNmlrrreer6",
"<<<1uihzxxh1<18urr,,3::&><<1tffuLHLgr9r434,,11mUSIkjlffffrragllh",
"<6<egijxbxl1<1efru,443&&:511rffixxYjrrt43388<<mSZAgflfgiuurrfzjf",
"1119riuLzxf111euue143&+:&511eyfixxcfuui44>>,<<mIPPJklfifuurifllk",
"<<9:&&:NPIBrrr881rNmm;+O&9rr989ee9rugfgrersVMn068rruuffffhji9%*:",
"118&  #NZSm9rr8<58IZT-oO$rui8<<,5>>rkjkfrrsZZI6<51ruraaffjlh<XXO",
"<88&#X@VZIBeru1<<6PSV;oO&9rr11591<<9lzlrrrfSZV8,98rrfufrfxkl8o X",
"<11:$#@nmmdsffr810SSZ7@@&ssg0111960afjgrursSZS0,,<rrrfdsgrir5+#&",
",111,5*9<1rxxxurrfCDS0>58ISPhrifSSSdrrrrursSCS0>58sffAPSm*&:344>",
"<8118<1<8>wxxxgursDCSy<17ZMSderumSCdrruuurdSSS0:>5sfamSSm*&&:344",
"88<5<<91,1rLLzf8rsSSI0><9SZSBrrySUUBerirersSSI0434gjfBSSC:&&443&",
"899rawy1<169rrhVmBJJJr<,5y005::>hhzg188NBBd000:++,zzlhssa>>,*o-&",
"urrfxzh1<49,11NSSPxzxe<181<<@Xo#fkhr:>1VSSp<><@# &Lcxgrer1,<&   ",
"uruffjfw<<5<5<MSZPcbLr114,18##XXglhu333ZSDn<88+XX*Yxxiru9419&OO#",
"rrirhhsw1w91<6sAmBxzz8*-*25*,,$>fhgu,8enmmp5<>&OX>gxljurr451&##$",
"euufSPUPxxg1>><151111*oo#61,aHlHgfuffgi&X#$&:*#o $811qrrr8>18444",
"rrrdDSDhxzg185918<1<5##++<1<fccxufguyuiO OO-&&OoO&<=8eiir<511,51",
"urrmSISLccg1<<,,,58<5#OOX111fxckifhfsui$  o$:&##.@,<19rrr1811<<1",
"rrr9;57gjlr<5<1688rw8*#XOrr9fkzzgdjfafu0000>,:4>>9iufdBNd11<raff",
"iug:..X8rr8,55<1<1rur>XX#fgyfaaalklfrrrVDSm><,yryfLxxPSIC5,<scRH",
"rru, +#eur915<1<58rff:X #ffffasglhlgafrmSSm<9<errrxxxmSSm9<,scbx",
"rrr4OO#8rre1<,9<88rar:OO#ffygfffkflf9ramZDn*<1wfufxxxBSSN1,,sccz"
};
