/* XPM */
static char *a6f21021e7fe4b64bc7b3136efda6ebdeq8zUBsZuGtL8hlT[] = {
/* columns rows colors chars-per-pixel */
"64 64 256 2 ",
"   c #2E3A19",
".  c #343C1A",
"X  c #2C390E",
"o  c #0A3833",
"O  c #3C342C",
"+  c #3D3A2C",
"@  c #373926",
"#  c #3D3433",
"$  c #3D3A33",
"%  c #3E373A",
"&  c #383027",
"*  c #020F08",
"=  c #42362E",
"-  c #44372A",
";  c #413634",
":  c #443B33",
">  c #433539",
",  c #453A39",
"<  c #4C352F",
"1  c #35441B",
"2  c #324B19",
"3  c #154434",
"4  c #374525",
"5  c #325234",
"6  c #1F753C",
"7  c #44572A",
"8  c #4A4435",
"9  c #524D33",
"0  c #644F3C",
"q  c #556B36",
"w  c #577637",
"e  c #576E2E",
"r  c #66793B",
"t  c #616C32",
"y  c #0F3751",
"u  c #0A366B",
"i  c #433941",
"p  c #72315D",
"a  c #06425C",
"s  c #17484B",
"d  c #2F5145",
"f  c #176F4D",
"g  c #34724D",
"h  c #06466B",
"j  c #104B6D",
"k  c #306F73",
"l  c #147774",
"z  c #514E44",
"x  c #6C5649",
"c  c #5B7747",
"v  c #4F6F4F",
"b  c #76634C",
"n  c #677845",
"m  c #6C6D53",
"M  c #586F6C",
"N  c #70716C",
"B  c #624B72",
"V  c #B11B5B",
"C  c #9E2C63",
"Z  c #876C5A",
"A  c #8F735A",
"S  c #8F7769",
"D  c #A57665",
"F  c #9B4E73",
"G  c #5D9D35",
"H  c #5C9030",
"J  c #639A3A",
"K  c #64883F",
"L  c #5DA72B",
"P  c #5CA635",
"I  c #62A436",
"U  c #64A43B",
"Y  c #64A93C",
"T  c #6CAA3E",
"R  c #69A53C",
"E  c #71AD3D",
"W  c #69B23C",
"Q  c #69AE33",
"!  c #3A864B",
"~  c #2C8974",
"^  c #55904E",
"/  c #688747",
"(  c #75874B",
")  c #659547",
"_  c #74984B",
"`  c #698556",
"'  c #768857",
"]  c #759B55",
"[  c #6A9A53",
"{  c #59A743",
"}  c #6CA543",
"|  c #6DAC44",
" . c #6EAC4A",
".. c #68A845",
"X. c #72AD45",
"o. c #74AD4B",
"O. c #77A949",
"+. c #6DB145",
"@. c #6BB44A",
"#. c #73B245",
"$. c #74B24B",
"%. c #7AB44D",
"&. c #7CB94D",
"*. c #77B948",
"=. c #6AA855",
"-. c #75AC51",
";. c #7AAD52",
":. c #79A757",
">. c #6CB052",
",. c #76B252",
"<. c #7CB553",
"1. c #7DB955",
"2. c #7DB559",
"3. c #7EB95A",
"4. c #76B757",
"5. c #4B926B",
"6. c #739168",
"7. c #71AF68",
"8. c #7CC25A",
"9. c #84925D",
"0. c #82B74D",
"q. c #83AA59",
"w. c #82B555",
"e. c #81BA55",
"r. c #82B65A",
"t. c #83BB5B",
"y. c #89BC5C",
"u. c #8BB85B",
"i. c #91BE5E",
"p. c #979769",
"a. c #9B8675",
"s. c #959675",
"d. c #8C8D6C",
"f. c #A88A77",
"g. c #B38A79",
"h. c #A89679",
"j. c #B08E74",
"k. c #85A867",
"l. c #85BB62",
"z. c #8ABD63",
"x. c #87B567",
"c. c #93BA66",
"v. c #98B974",
"b. c #8EAB73",
"n. c #A9AA7A",
"m. c #C1957E",
"M. c #84C44D",
"N. c #85C155",
"B. c #8AC456",
"V. c #85C15C",
"C. c #8BC35C",
"Z. c #8ECA5D",
"A. c #8BCA54",
"S. c #93CB5D",
"D. c #91C75B",
"F. c #95D15D",
"G. c #8CC463",
"H. c #8EC962",
"J. c #89C464",
"K. c #93C564",
"L. c #93CB64",
"P. c #94CC6A",
"I. c #97C868",
"U. c #96D067",
"Y. c #99C775",
"T. c #A0C07D",
"R. c #04738B",
"E. c #2F6888",
"W. c #4C6D8A",
"Q. c #76708F",
"!. c #A07D83",
"~. c #2D8F95",
"^. c #189CA7",
"/. c #2E93A8",
"(. c #2FA6B3",
"). c #1997A3",
"_. c #538A95",
"`. c #7D9698",
"'. c #718C90",
"]. c #5195A3",
"[. c #7298A9",
"{. c #52B4B7",
"}. c #6DA4B1",
"|. c #6BA28F",
" X c #69AACC",
".X c #58ACC4",
"XX c #6BC9D2",
"oX c #7EE2E4",
"OX c #858888",
"+X c #8E9491",
"@X c #B58D83",
"#X c #B99986",
"$X c #A9978C",
"%X c #94A097",
"&X c #AAAB88",
"*X c #B9A58A",
"=X c #BAA897",
"-X c #AEAD95",
";X c #98AAA6",
":X c #89A9B7",
">X c #92AEAE",
",X c #A3A9A7",
"<X c #B3B5B4",
"1X c #8A9EA9",
"2X c #C79D8F",
"3X c #C6A68B",
"4X c #C8AB95",
"5X c #CAB49A",
"6X c #D6B79B",
"7X c #D2A794",
"8X c #C7B6A6",
"9X c #DABCA3",
"0X c #D7BBA7",
"qX c #D4BEB1",
"wX c #E3BDA4",
"eX c #B1C3BA",
"rX c #CEC79A",
"tX c #D9C7A9",
"yX c #DBC5B3",
"uX c #CCCCB1",
"iX c #E4C4AC",
"pX c #E4CAAD",
"aX c #EBCBAD",
"sX c #E6C4A8",
"dX c #E4CCB3",
"fX c #EBCCB5",
"gX c #ECCDBB",
"hX c #E6C7B7",
"jX c #F2CCB6",
"kX c #E9D3B7",
"lX c #F4D4B7",
"zX c #EFCCAD",
"xX c #E4C49E",
"cX c #8FB1CB",
"vX c #A7BBCB",
"bX c #8FCBD5",
"nX c #A8C5D5",
"mX c #B5C8D9",
"MX c #B4CAC8",
"NX c #B4D5E9",
"BX c #8FE6F7",
"VX c #B4E9FB",
"CX c #90DFE6",
"ZX c #CCCFCC",
"AX c #F2D1C7",
"SX c #CFE5CE",
"DX c #CAD9E9",
"FX c #D8E9F6",
"GX c #DCF7FD",
"HX c #CBEBF3",
"JX c #E8FBFC",
"KX c #F4FDFD",
"LX c #FCFEFC",
"PX c #F9F9F6",
"IX c #EBEFEC",
"UX c #E4B3C6",
/* pixels */
"%.1.$.$.;.-.-.w.&.0.0.F.F.D.F.D.F.M.L L L *.F.D.I.i.c.v.k.' v 8 @ + 8 q / ^ R ;.l.2.2.>.@.Y ;.o.;.o.%.w.&.$.| $.| $.| o.%.1.1.<.",
"4.e.2.,.-.O.o.t.e.&.e.A.S.B.S.S.S.N.L L L M.D.I.i.v.T.p.v     & + O @ @ 2 2 w :.b.x.7...@.@.%.%.o.o.w.1.&.,.#.$.X.#.$.| $.1.<.<.",
"%.2.2.o.O.} o.2.e.%.B.Z.L.S.S.K.L.G.I P L N.I.I.k./ q 7 4   + : = # # $ @ 1 2 2 / b.2.@.W @.W #.o.%.&.X.,.$.#.#.| $.| $.%.<.<.w.",
"4.1.2.2.r.2.w.r.w.%.N.H.F.L.B.y.C.3...} Y 1.c./ 1   @ 4 + @ + O : , ; # $ @ 4 1 4 q ] -.@.W W +.X.o.Z.t.C.<.X.} $.%.%.$.<.1.<.<.",
"4.2.2.x.l.l.l.2.1.%.1.H.D.U.0.&.2.,.-.4.X.q./ 2 4 @ # $ % , : < & ; > > $ $ + + =   7 / -.$.E E X.%.H.G.P.&.X.$.$.%.1.%.1.<.<.;.",
"2.,.2.2.2.l.r.2.1.4.N.U.K.L.w.%.<.,.o.;.O.q.7 . @ # % % # # = : , : # # # $ O ; , & O 1 ) ;.#.R o.%.Z.L.L.%.X.$.X.%.1.1.1.%.1.w.",
"2.2.2.l.x.l.l.2.%.%.e.Z.Z.B.y.0.&.&.o.O.9.r X @ $ , % # % ; = = O + $ $ ; ; ; > > > # @ 5 q.q.0.O.%.Z.P.P.e.X.X.X.%.1.<.<.<.%.<.",
"2.,.4.r.l.l.t.-.%.o.$.X.&.#.C.B.B.B.y.c.v.7 @ + O ; ; % ; $ - = + $ $ # ; ; = > i # , 4 X ( q.w.w.e.e.1.%.1.$.1.%.1.1.<.;.o.o.o.",
"1.2.o.t.t.t.z.%.X.} &.T #.E D.D.F.B.i.v.9.. + O ; > # : ; O # O = = $ # i % # ; # = : @ 1 e q.z.t.%.0.o.w.%.w.e.%.2.w.1.%.o.o.o.",
"1.1.4.t.z.r.t.o.%.X.#.E E #.C.S.A.S.i.v.q & # # # ; = = : & = # & : O , % i , ; : + : @ . 5 c.q.w.%.e.&.%.&.X.o.<.&.<.&.;.o.o.o.",
"@.$.$.<.r.w.<.%.X.} #.*.&.0.B.D.Z.L.c.9.@ # > i > ; : - & < # # - < - ; 9 x N @ @ @ + @ 4 4 :.2.w.&.e.e.w.e.e.V.t.<.<.2.<.;.o.-.",
"P I U } $.o.X.o.#.#.&.U.D.S.S.L.Z.L.c.r . ; i % % # O 9 < : m x Z 0 A a.uX=X0X0 @ - ; # $ 4 / :.R %.L.U.U.P.I.P.K.2.<.w.%.o.o.o.",
"U U U R o.%.X.$.#.} *.L.D.L.D.L.H.P.v.7 @ $ % # # ; z =XZ S S qXhX0XpXkXpXtXdX&X9 9 > i & & :.o.$.0.L.C.K.C.G.K.K.<.%.2.o.O.o. .",
"I U U U  .$.o.| $.X.&.L.S.L.K.K.J.P.v.5 4 $ % % , O x 4XqX5XyXAXhXaXkXpXAXkXiXhX=Xa.< < 8 @ ] o.X.#.Z.S.U.U.P.P.K.w.<.w.,.%.-.o.",
"+.*.$.4.3.V.t.o.U R #.C.B.y.y.e.1.3.:.e   @ O $ & m =XqXfXfXyXkXgXfXtX=Xf.b Z @X0X8Xz < S m ] C.C.N.&.o.O.e.t.C.J.t.w.t.e.;.;.2.",
"*.8.,.N.V.J.y.} U J X.e.e.w.w.1.3.:.:.r . - = O = S 8XS 0 Z A 4XfXdX4Xb 8 0 Z f.0XhXZ < b 9./ I.L.C.X.O.} C.t.G.y.z.t.t.t.<.%.1.",
"4.1.<.4.G.J.J.) J J X.G.t.t.%.w.2.r.:.c m 7 - O x -Xa.b 0 9 Z f.0XsXf.a.a.0 a.5XjXjXm.9 A &Xr v.I.D.%.#.X.t.y.J.G.y.t.t.r.w.<.2.",
",.4.2.r.C.t.y.$. .} o.t.4.e.<.<.r.:.:.c s.9 - 8 $XAXqX@Xx S f.D 2XsXf.j.h.8 -X5XjXjXlXp.s.rX9.k.c.e.X.o.X.1.t.y.t.t.t.t.w.,.,.2.",
"2.<.<.<.2.%.1.1.%.;.2.w.%.e.$.o.-._ :./ d.0 & 0 qXAX4X5Xb Z =XZ 3XxXj.p.a.3XdXgXwXAXaX5XA =Xp.( q.O.X.o.o.o.o.X.o.<.r.r.-. .o.o.",
"1.1.o.<.1.<.$.2.<.1.1.<.%.2.o.X.o.;.w ( uXf.< Z yXhXhXgX5Xh.S f.3XsXsXj.j.3X9XgXgXAXaX9Xf.a.j.n 0.o.X.X. .o.o.,.,.r.z.t.<.o.o.$.",
"%.1.&.4.e.1.o.1.4.&.2.1.<.1.o.o.X.;.J 9.tXa.0 A AXAXiXpXtX3X5X4X6XaXfXwXjXiXlXfXqXjXjXsXg.j.n.r _ E X.%.$.o. ...-.<.r.r.;.o.o. .",
"t.G.C.t.<.1.1.y.G.V.t.1.1.t.-.$.$.o.) ' n.@X@X@XwXaXjXaXdXdXjX9XsXgXgXgX9XiXhXfXAXhXiX7Xf.rXn.K i.e.1.&.$.<.1.3.2.r.r.r.r.2.2.4.",
"P.P.P.C.X.%.1.L.U.P.J.N.y.t.o.o.} e._ ( $X2X@X2X7XsXsXpXlXtX3X6XtXdXfXfX6Xn.xXdXkXyXpXg.3XtXp.q.I.C.e.e.4.2.,.,.2.2.<.2.2.2.1.1.",
"H.Z.L.H.%.%.1.G.J.P.H.3.y.t.$.o.*.} _ / 4X#X@XD 3X3X6XzXsXh.5X7XtXdXkXiX3Xj.4XsXpXfX6Xh.rXrXr c.I.D.%.e.%.N.4.3.2.1.t.2.e.e.1.1.",
"Z.L.G.Z.o.%.%.G.G.Z.y.y.t.w.<.$.$. .2.e 3XpX4Xf.j.3X6XzX6X#Xj.g.*XiX8XD 2XwXiXxXzXwX7Xa.n.( _ G.G.K.e.1.4.1.1.1.e.2.w.w.1.%.V.<.",
"%.<.$.$.R } } %.1.1.<.,.%.1.<.,.4.,.:.( 9.xXkX*X*X*X6XsXtXtXjX7Xf.Z D 7XAXwX6XsXzXwX*Xb r K q.C.y.w.%.<.3.1.4.<.1.X.%.%.o.o.o. .",
"1.e.<.<.} } | %.w.%.4.1.2.2.w.2.3.r.-.] r p.5Xh.A *X5XlX6Xj.2X7X@X#X7X2XD D 3XsXjX6X$Xm k.:.q.u.u.u.q.2.3.4.<.N.1.} O.X.X.X.| $.",
"%.2.%.o.R } } %.1.1.1.1.<.1.<.<.;.2.%.-.q.K ( n t n.=X6XtX7Xm.g.@X@X!.D D 3XzXzXhX4Xs.9 c ' x.x.x.x.2.r.t.w.1.e.&.X.X.X.$.$.$.X.",
"<.2.<.<.o.-.%.2.<.%.<.<.o.<.1.<.t.4. .o.O.q.c.b.' n *X=XyXAXzXm.D A Z D m.wXzXaXjX=XM y d 5 / b.v.c.q.;.-.;.%.0.*.B.0.0.&.X.%.X.",
"2.%.%.1.2.t.2.<.2.<.-.o.o.-.1.t.r.<.$.$.X.%.O.] k.n d.5X4XtXjXwXm.j.D j.7XzXjXfXqX;X_.].DX+Xm 6.6.k.:.:.-.o.X.#.#.F.F.U.e.X.$.X.",
"1.2.2.2.t.t.e.<.2.<.%.O.| X.%.w.w.w.@.W #.W #.4.k.' x a.*X9XzXzXwX7X2X7X9XhXgXyX8X<XXX/.GXPXLXSXc ) ] :.2.%.T E E S.Z.S.&.T X.#.",
"<.<.1.<.2.2.3.1.1.1.%.%.o.o.%.t.r.r.| #.+.#.+.-.n n m m $X=X6XjXzXxXjXfXjXhXdXuXOXHXCX/.HXLXIX-Xs.' n / _ %.o.#.&.Z.S.Z.e.$.| $.",
"o.| $.<.<.<.2.G.P.H.y.R %.X.&.t.,.l.2.<.1.,.-./ ` N MX1XQ.%X4XsXjXjXiXaXjXdXuX'._.VXBX(.VXLX$X=XdXkXrX/ _ O.o.$.o.t.y.r.t.2.,.8.",
"#.| X.$.<.1.1.D.L.K.B.O.%.X.w.w.y.<.<.r.2.2.] n OX<XJXNX'.>X-X5XjXwX0X0XfX0X&X'.|.BXVX].MXeX+XgXAXpXtX( _ O.-.o.$.y.z.x.r.r.,.,.",
"o.X.o.o.<.<.0.C.S.L.B.E X.O.<.w.e.w.z.y.<.;.) b.eXPXJXDX}.DX;X$X8XhX8X8XqX=X<X,X|.bXHX|.+XN =XkXdXkXn.e :.<...$.,.t.l.t.t.2.4.1.",
"2.2.w.1.%.o.%.D.S.L.B.X.%.%.2.<.#.&.;.;.w.4.^ uXPXLXJXGX:XGXmX1X$X%X+XOX+XZXPX<XbX>XHXM z m AXyXtXn.q O.O.,.<.,.4.r.r.r.r.3.t.3.",
"G.z.z.t.%.} #.B.A.S.B.*.1.1.4. .O.%.;.o.o. .v IXLXPXLXJX>XHXVX}.cXNXQ.[.W.'.PXvX;X>XeXM m d.kXtXn.w k.:.;.w.N.N.3.2.2.<.r.r.y.t.",
"G.z.G.w.o.} #.D.S.F.B.&.1.1.,.o.o.O. .o.-.[ 4 M SXIXIXIXnXHXVXcXmXcXE.[.E.E.ZXDX1X+XSXg d.uXrXrX/ :.:.;.} t.e.e.3.<.<.2.r.z.z.u.",
"y.G.z.2.%.O.%.N.S.S.8.*.,.,.,.2.o.o. .>.O.( s.S z OXvX<XQ.DXFXcXvXNXE. XE.E.mXDX[.>XJX'.<XqX=Xb _ 2.:.-.;.&.e.t.N.,.,.t.r.u.y.u.",
"K.I.I.e.w.e.%.%.#.$.#.#.$. ...-.-.-.-.l.k.t 8XAX8XS m z d 1XmXcXnXDXE.cXE.E.,XDXnXmXFXQ.$X=X&Xt k.3.2.,.u.y.L.Z.G.3.2.2.-.-.;.-.",
"D.K.U.D.r.;.y.o.O.o. .| +.| | @.-.-.4.-.t p.sXzXkXtX' c v * !.cXcXmXW.1XcX[.IXKXNXNXFX!.N *X&Xw 2.2.e.w.w.D.I.I.L.,.,.t.$.o.;.O.",
"S.S.K.C.r.<.t.o. .-.$. .$.$.+.%.o.,.) / n.aXlXxXtX9./ ] x M <XDXFXFXDXmX>XSXPXKXNXNXFX;X4 r e _ ;.1.e.w.u.i.K.K.G.<.4.1.-. .;.-.",
"M.B.B.e.l.2.l.2.4.4.$.o.+.X.#.$.%.:.n rXfX6XzXlXn.e :.k.6.IXLXLXPXPXFXvX%X%XZXIXDXNXFXZXw -.r.l.w.w.0.w.u.i.c.K.C.2.<.<.,.,.4.<.",
"E E #.O.2.2.3.l.J.J.3.$.@.$.$.&.<.:.` 5X#XwX6XrX( ) O._ 6.IXLXPXPXPXmX,XZXuXyXvXMXmXFX<X^ =.x.Y.P.L.y.y.t.u.w.r.r.r.2.1.t.t.t.e.",
"E +.X.$.l.t.3.J.J.J.3.o.X.$.%.w.<.q.c -X=X5Xp.( H [ o.:.6.PXPXLXPXIX,XZXZX<X,X+X+XDXmX;Xv ^ ^ x.I.C.2.w.r.r.r.r.;.<.o.<.1.N.3.3.",
"#.#.$.%.4.3.2.J.V.V.1.o.o.$.$.;.e.;./ q n ( e / ) o.%.:.^ SXPXLXPXIX=XvX,X%X;X`.'.HXJX[.s s 3 v Y.G.C.V.l.x.t.r.z.t.r.w.t.e.8.8.",
"#.....o.} ..} J.G.L.C.w.<.<.<.%.X.&.z.l.r.J J } T &.| l.' ` SXPXPXSX,XvXcX[.[.:XDXmXNX_.j a s 3 :.o.2.1.4.2.2.2.r.2.2.<.o.....+.",
"$.X.o. .G P U V.L.L.V.<.<.<.;.O.E 0.L.H.P.| G { Q #.t.q.:.[ / %XIXIX+X:X}. XVXJXGXbX}.j h j a o ^ X.1.3.2.4.l.l.t.t.J.y.o.} G P ",
" .$.$...I I J S.P.U.C.o.w.2.o.o.E 0.D.Z.F.W P P W ,.&.0.2.-.:./ ] eX1X[.:XGXKXJXBX.XE.h h u h 3 [ $.,.t.<.r.r.w.w.t.N.8.#.P P { ",
">.$.+.Y U T I M.N.C.y.w.y.2.;.w.%.%.D.S.F.#.L P P J.u.w.2.$.<.:.` M >X|.DXKXFXbX(.^.h h u y j 3 [ >.<.<.;.r.u.y.e.&.,.*.+.......",
" .$.+.#.#.#.E #.X.#.1.G.G.y.;.1.,.1.K.K.I.&.W W @.V.P.Y.t.,.&.7.v '.>X`.FXJXCX~./.R.h u u j y 5 :.%.t.z.r.K.P.P.C.} #.T +...| +.",
" .$.o.$.#.#.#.} %.X.o.t.y.G.w.1.*.8.K.D.K.&.#.+.*.H.G.P.1.,.J.` |.>X>X>XFXGX.X).^.R.h u u y 3 ^ =.| 1.r.<.z.I.K.Z.R U Y +.+.@.+.",
"o.,.o.X.X.} %.X.o.o.4.K.G.C.w.X.$.N.S.F.D.0.O.X.*.U.D.D.I.q.n 6.IXFX>X[.nXHX{.^.R.h u u y 3 [ >.$.@.1.t.1.G.I.P.Z.| Y W +.P @.+.",
"<.%.$.%.1.&.e.o.o.o.;.<.o.1.C.Z.B.D.B.C.D.0.O.X.E *.0.w.:./ 9.IXLXKXJXcX[.NX(./.j u u y s 7.>...Y | N.3.t.t.t.t.1. .Y ..+.P @.P ",
"<.1.w.e.G.y.t.o.o.O.-.o.X.o.C.K.I.I.y.z.y.,.>.,.*.#.o. .6 g ZXPXLXPXKXJXM ~ ~.~.u j u y g 7.P L P Y Z.J.G.t.,.<.<.| +.+.Y P P P ",
"1.%.w.%.e.r.r.1.-.o.<.o.o.#.N.L.I.c.z.I.J.,.@.>.,.=.=.g g M F F UXPXPXeXv ! l R.y s y 5 7.@.L Q L | C.V.G.t.<.4.<.@.$.| Y U L Y ",
"<.%.1.1.G.G.2.,.-.-.o.-.X.#.e.Z.L.G.z.l.J.-.@.>.=.! M W.F p V V C AXqX` [ 7.g f s y o ^ =.P Q L P Y N.t.y.r.4.<.<.| @.| Y Y I U ",
";.<.%.e.H.G.P.J.J.l.t.,.| X.#.#.| $.o.o.;.} P ^ g |.XXW.p C V V p @Xm b.3.8.7.g 3 3 5 [ >.W L L I U $.o.o.;.<.<.1.$.$.+.+.$.+.@.",
"<.e.,.V.P.H.P.J.t.P.3.o.X.$.#.X.E *.%.o.%.O.G 6 ~ XX(.E.B p p B B d 7.q.2.4.3.=.^ ^ =.,...T L L I Y $.X.$.2.r.1.<.+.$.+.+.o.X.$.",
"<.2.<.V.P.P.H.J.t.J.3. .o.#.X.E E Q X.o.O.J ^ 6 ^.^.(.R.B !.Q._.k ^ x.u.1.<.1.} P G P Y { | I R G U o.X.o.<.w.%.%.| $.| o.| o.o.",
"1.<.<.$.$.&.%.N.1.V.<.o.$.$.| E #.E %.r.*.@.! f ^.^.(.XXXXbXXX~.g 7.w.u.&.0.0.0.0.*.*.W +.$.=.=. .o.t.<.2.t.D.C.e.O.o.X.1.2.t.w.",
"4.%.1.| G J G $.%.,.$. .$.$.X.#.X.%.q.w.*.@.! ! ).(.XXoXoX{.~ f 6.x.c.0.<.%.0.A.F.F.M.W W @.7.2.3.t.K.C.z.K.I.I.S.#.O.X.e.G.J.z.",
"*.4.1.@.U I I 1.1.1.%.$.o.| X.o. .,.4.8.8.{ { ! 6 f ~ ~ ~ 6 g 7.x.J.2.l.l.N.*.M.A.S.D.X.*.W o.e.<.4.J.l.y.D.K.D.L.X.X.} t.J.I.x.",
"3.1.$.+.U I U *.*.,.,.$. .$.$.o.4.4.,.*.8.P P { ^ 5.~ ~ _.7.x.x.J.7.3.x.4.$.*.A.S.S.i.} #.#.X.0.t.2.l.y.c.K.I.U.B.O.o.o.t.x.J.c."
};
